<svg class="logo" fill="none" xmlns="http://www.w3.org/2000/svg" width="128" height="61" viewBox="0 0 128 61">
                        <path fill-rule="evenodd" clip-rule="evenodd" d="M68.2554 20.1612c5.9624 0 6.1176 5.1035 6.1214 7.7007l.0001 4.5059c0 5.0438-1.7312 8.0107-6.6998 8.0107-1.4245 0-2.8493-.696-4.0423-2.5425l-.0775-.0375v9.5477h-2.311V20.5466h2.2334v2.3485l.0776-.0374c1.2316-1.8878 3.1583-2.6965 4.6981-2.6965zm35.8346 0c6.529 0 6.695 4.9197 6.699 7.4351l.001 4.7715c0 5.0438-1.733 8.0107-6.7 8.0107-4.9676 0-6.7-2.9669-6.7-8.0107l.0001-4.7715c.0041-2.5154.1717-7.4351 6.6999-7.4351zm-54.1202.0012c1.9642 0 6.0465.1925 6.0465 5.1588l.0001 10.1153.0005.2217c.0036 1.1817.0305 2.3695.2298 4.3346h-2.3875v-2.3874h-.0775c-1.2319 1.848-3.1197 2.7729-5.5069 2.7729-3.465 0-5.3517-2.3509-5.3517-5.7384 0-6.8151 6.8538-6.1215 10.7822-6.4308v-1.6174c0-2.8493-.8476-4.5816-3.9284-4.5816-2.1167 0-3.8116 1.0402-3.8116 3.3497h-2.465c.1929-3.7355 3.0808-5.1974 6.4695-5.1974zm-15.9758-.0012c3.3512 0 5.6233 1.8878 5.4304 5.9687h-2.311c.1165-2.4261-.7698-4.1198-3.4262-4.1198-1.4245 0-2.6201.8086-3.1197 2.2334-.3079.8848-.5382 3.5427-.5382 6.1227l.0001.3153c.0033 3.4284.1094 7.7588 3.4881 7.8403h5.9821l-1.7514 1.7514s-1.019.0301-2.0945.0523l-.1902.0039-.1902.0036a84.5522 84.5522 0 01-1.3077.016h-.1427a18.7582 18.7582 0 01-.3054-.0029c-5.7052-.1119-5.9429-4.9214-5.9528-9.4196l-.0002-.7032c.0038-1.9299.0896-4.8603.577-6.288 1.0015-2.7726 3.1972-3.7741 5.8525-3.7741zm56.8934-4.62v5.0049h3.9281v1.8488h-3.9281v12.4774c0 2.58.2693 3.1935 2.1182 3.1935.7697 0 1.3094-.0375 1.8099-.1154v2.0032c-.6945.0775-1.4631.1162-2.1954.1162-3.1185 0-4.0434-1.3868-4.0434-3.7742V22.3949h-3.1185v-1.8488h3.1185v-4.0045l2.3107-1.0004zm31.5666 4.62c4.812 0 5.313 3.5815 5.313 6.1226v13.709h-2.309V26.4003c0-2.2721-.887-4.3902-3.582-4.3902-2.08 0-4.198 1.4247-4.198 5.7761v12.2066h-2.31V20.5466h2.31v2.3875h.077c1.117-1.6174 2.618-2.7729 4.699-2.7729zm-40.8511.3849v19.4461h-2.3107V20.5461h2.3107zm-13.6554 1.464c-1.7713 0-4.3902 1.6949-4.3902 6.5072v3.4662c0 4.428 2.0031 6.5462 4.1198 6.5462 3.1958 0 3.7355-2.1182 3.9272-2.5815.3855-.9615.463-4.4655.463-5.6971l-.0001-.3479-.0001-.1164-.0007-.2336-.0012-.2341a61.2812 61.2812 0 00-.002-.2345l-.003-.2346c-.0522-3.4401-.4872-6.8399-4.1127-6.8399zM53.7053 30.058c-3.3111.1153-8.3172-.269-8.3172 4.4666 0 2.196 1.1166 4.0048 3.5026 4.0048 2.6578 0 4.8146-2.3874 4.8146-4.9285V30.058zm50.3847-8.0479c-3.812 0-4.3905 2.5024-4.3905 8.241 0 1.2316.0776 4.7356.4635 5.6971.191.4633.731 2.5812 3.927 2.5812 3.197 0 3.735-2.1179 3.928-2.5812.386-.9615.461-4.4655.461-5.6971 0-5.7386-.576-8.241-4.389-8.241zm-23.6426-7.6976c.9138 0 1.6543.7408 1.6543 1.6545 0 .9135-.7405 1.6543-1.6543 1.6543-.9134 0-1.6542-.7408-1.6542-1.6543 0-.9137.7408-1.6545 1.6542-1.6545z" fill="#000"></path>
                        <path fill-rule="evenodd" clip-rule="evenodd" d="M15.0505 12c-2.793.3743-15.2877 7.1707-15.047 22.9001.1237 8.1685 3.5677 12.9202 7.0027 16.4543 3.2057 3.3 10.6905 8.7653 22.1839 8.7653 9.2575 0 16.2916-3.6465 19.7203-6.9401 0 0-2.2167-2.6614-2.2156-2.6201.0012.0951-5.6698 5.5744-16.0513 5.5092-11.1465-.07-15.2289-8.5426-15.593-21.0433V12z" fill="#E03B4C"></path>
                    </svg>